<?xml version="1.0" encoding="utf-8"?>
<!-- Generator: Adobe Illustrator 25.2.1, SVG Export Plug-In . SVG Version: 6.00 Build 0)  -->
<svg version="1.1" id="Layer_1" xmlns="http://www.w3.org/2000/svg" xmlns:xlink="http://www.w3.org/1999/xlink" x="0px" y="0px"
	 viewBox="0 0 819.64 158.51" style="enable-background:new 0 0 819.64 158.51;" xml:space="preserve">
<style type="text/css">
	.st0{fill:#3E3F44;}
</style>
<path class="st0" d="M64.13,24.68c-9.65,0-12.44,4.28-12.44,13.72v15.66h25.74l-2.58,25.3H51.7v76.78H20.81V79.36H0v-25.3h20.81
	V38.83c0-25.52,10.29-39,39-39c6.02-0.01,12.03,0.34,18,1.07v23.81L64.13,24.68z"/>
<path class="st0" d="M79.57,101.88c0-28.52,13.51-50,41.82-50c15.44,0,24.87,7.94,29.38,17.8V54.06h29.59v102.08h-29.59V140.7
	c-4.29,9.87-13.94,17.59-29.38,17.59c-28.31,0-41.82-21.45-41.82-50V101.88z M110.45,108.75c0,15.22,5.57,25.3,19.94,25.3
	c12.66,0,19.09-9.22,19.09-23.8V100c0-14.58-6.43-23.8-19.09-23.8c-14.37,0-19.94,10.08-19.94,25.3V108.75z"/>
<path class="st0" d="M244.7,51.91c12,0,23.37,2.58,29.59,6.86l-6.86,21.88c-6.43-3.06-13.46-4.68-20.59-4.72
	c-16.73,0-24,9.65-24,26.17v6c0,16.52,7.29,26.17,24,26.17c7.13-0.04,14.16-1.66,20.59-4.72l6.86,21.87
	c-6.22,4.29-17.58,6.87-29.59,6.87c-36.25,0-52.76-19.52-52.76-50.83v-4.72C191.94,71.43,208.45,51.91,244.7,51.91z"/>
<path class="st0" d="M278.36,109v-9c0-28.95,16.51-48,50.19-48c31.74,0,45.68,19.3,45.68,47.61v16.3h-65
	c0.65,13.94,6.87,20.16,24,20.16c11.59,0,23.81-2.36,32.82-6.22L371.7,151c-8.15,4.3-24.88,7.51-39.67,7.51
	C292.94,158.5,278.36,139,278.36,109z M309.24,95.7h37.32v-2.57c0-11.15-4.5-20-18-20c-13.95,0.01-19.32,8.81-19.32,22.53V95.7z"/>
<path class="st0" d="M488.7,108.32c0,28.52-13.72,50-42,50c-15.44,0-26.16-7.72-30.45-17.59v15.44h-29.16V2.8L417.97,0v68.2
	c4.5-9,14.37-16.3,28.74-16.3c28.31,0,42,21.45,42,50L488.7,108.32z M457.82,101.24c0-14.37-5.57-25.09-20.37-25.09
	c-12.66,0-19.52,9-19.52,23.59v10.72c0,14.58,6.86,23.59,19.52,23.59c14.8,0,20.37-10.72,20.37-25.09V101.24z"/>
<path class="st0" d="M499.03,107.67v-5.14c0-29.39,16.73-50.62,50.83-50.62s50.84,21.23,50.84,50.62v5.14
	c0,29.38-16.73,50.62-50.83,50.62S499.03,137.05,499.03,107.67z M569.81,100.38c0-13.51-5.58-24.23-20-24.23
	s-19.95,10.72-19.95,24.23v9.44c0,13.51,5.58,24.23,19.95,24.23s20-10.72,20-24.23V100.38z"/>
<path class="st0" d="M610.97,107.67v-5.14c0-29.39,16.73-50.62,50.83-50.62s50.83,21.23,50.83,50.62v5.14
	c0,29.38-16.73,50.62-50.83,50.62S610.97,137.05,610.97,107.67z M681.75,100.38c0-13.51-5.58-24.23-19.95-24.23
	s-19.94,10.72-19.94,24.23v9.44c0,13.51,5.57,24.23,19.94,24.23s19.95-10.72,19.95-24.23V100.38z"/>
<path class="st0" d="M755.09,102.74l30.45-48.68h32.81l-31.95,50.4l33.24,51.68h-32.81l-31.74-50v50H724.2V2.8L755.09,0V102.74z"/>
</svg>
